# xmcd
#
# Track frame offsets: 
#        150
#        13017
#        26950
#        38052
#        45692
#        59892
#        70375
#        85815
#        93942
#        104067
#        116397
#        127357
#        139272
#        157390
#        163722
#        187132
#        209117
#        221750
#
# Disc length: 3078 seconds
#
# Revision: 0
# Processed by: cddbd v1.5.1PL0 Copyright (c) Steve Scherf et al.
# Submitted via: ExactAudioCopy v0.95a5
#
DISCID=280c0412
DTITLE=Simon and Garfunkel - The Hits Collection
DYEAR=1995
DGENRE=Acoustic
TTITLE0=I Am A Rock
TTITLE1=The Sounds Of Silence
TTITLE2=Homeward Bound
TTITLE3=59th Street Bridge Song
TTITLE4=Scarborough Fair - Conticle
TTITLE5=Hazy Shade Of Winter
TTITLE6=America
TTITLE7=April Come She Will
TTITLE8=Wednesday Morning,3 A.M.
TTITLE9=Bleecker Street
TTITLE10=Peggy-O
TTITLE11=Benedictus
TTITLE12=Mrs. Robinson
TTITLE13=Bookends Theme
TTITLE14=The Boxser
TTITLE15=Bridge Over Troubled Water
TTITLE16=The Sun Is Burning
TTITLE17=7 O'Clock News - Silent Night
EXTD=
EXTT0=
EXTT1=
EXTT2=
EXTT3=
EXTT4=
EXTT5=
EXTT6=
EXTT7=
EXTT8=
EXTT9=
EXTT10=
EXTT11=
EXTT12=
EXTT13=
EXTT14=
EXTT15=
EXTT16=
EXTT17=
PLAYORDER=
